<?xml version="1.0" encoding="UTF-8" standalone="no"?>
<!-- Created with Inkscape (http://www.inkscape.org/) -->

<svg
   xmlns:dc="http://purl.org/dc/elements/1.1/"
   xmlns:cc="http://creativecommons.org/ns#"
   xmlns:rdf="http://www.w3.org/1999/02/22-rdf-syntax-ns#"
   xmlns:svg="http://www.w3.org/2000/svg"
   xmlns="http://www.w3.org/2000/svg"
   xmlns:sodipodi="http://sodipodi.sourceforge.net/DTD/sodipodi-0.dtd"
   xmlns:inkscape="http://www.inkscape.org/namespaces/inkscape"
   width="194.4062mm"
   height="224.48094mm"
   viewBox="0 0 194.40621 224.48094"
   version="1.1"
   id="svg9766"
   inkscape:version="0.92.4 (5da689c313, 2019-01-14)"
   sodipodi:docname="Busch2_2.svg">
  <defs
     id="defs9760" />
  <sodipodi:namedview
     id="base"
     pagecolor="#ffffff"
     bordercolor="#666666"
     borderopacity="1.0"
     inkscape:pageopacity="0.0"
     inkscape:pageshadow="2"
     inkscape:zoom="0.98994949"
     inkscape:cx="-50.700749"
     inkscape:cy="327.46093"
     inkscape:document-units="mm"
     inkscape:current-layer="layer2"
     showgrid="false"
     inkscape:window-width="1920"
     inkscape:window-height="1017"
     inkscape:window-x="-8"
     inkscape:window-y="-8"
     inkscape:window-maximized="1"
     showguides="true"
     inkscape:guide-bbox="true" />
  <metadata
     id="metadata9763">
    <rdf:RDF>
      <cc:Work
         rdf:about="">
        <dc:format>image/svg+xml</dc:format>
        <dc:type
           rdf:resource="http://purl.org/dc/dcmitype/StillImage" />
        <dc:title />
      </cc:Work>
    </rdf:RDF>
  </metadata>
  <g
     inkscape:label="Ebene 1"
     inkscape:groupmode="layer"
     id="layer1"
     style="display:none"
     transform="translate(-8.5372571,-14.625031)">
    <path
       sodipodi:type="star"
       style="fill:#999999;stroke-width:0.26458332"
       id="path9802"
       sodipodi:sides="6"
       sodipodi:cx="105.74036"
       sodipodi:cy="126.8655"
       sodipodi:r1="112.24047"
       sodipodi:r2="97.203102"
       sodipodi:arg1="0.52359878"
       sodipodi:arg2="1.0471976"
       inkscape:flatsided="true"
       inkscape:rounded="0"
       inkscape:randomized="0"
       d="m 202.94346,182.98574 -97.2031,56.12023 -97.2031029,-56.12023 5e-7,-112.240474 97.2031024,-56.120235 97.2031,56.120235 z"
       inkscape:transform-center-y="-1.0845752e-06" />
  </g>
  <g
     inkscape:groupmode="layer"
     id="layer3"
     inkscape:label="Ebene 3"
     style="display:none">
    <path
       style="display:inline;fill:#008000;stroke:#008000;stroke-width:0.26499999;stroke-linecap:butt;stroke-linejoin:miter;stroke-miterlimit:4;stroke-dasharray:none;stroke-opacity:1"
       d="m 26.111925,132.9113 -66.2828,0.80182 c 0,0 -21.381601,2.93996 -29.666902,-10.42352 -8.2854,-13.36348 -1.0691,-36.615915 19.510601,-37.150455 20.579799,-0.53454 21.916101,17.372515 21.916101,17.372515 0,0 -16.303403,-14.432555 -0.2672,-27.528755 16.0361,-13.096209 34.2104976,-5.61266 40.6249,6.41446 6.414501,12.02713 1.870898,16.036171 -1.069001,18.441605 -2.9400004,2.40543 -7.4835994,-16.303445 7.216201,-20.847025 14.699904,-4.54358 40.625004,2.40542 35.814204,29.132375 -4.8109,26.72696 -27.796104,23.78698 -27.796104,23.78698 z"
       id="path278"
       inkscape:connector-curvature="0" />
  </g>
  <g
     inkscape:groupmode="layer"
     id="layer2"
     inkscape:label="Ebene 2"
     transform="translate(-8.5372571,-14.625031)">
    <path
       style="display:inline;fill:#00c882;stroke:#85f089;stroke-width:12.03898907;stroke-linecap:round;stroke-linejoin:round;stroke-miterlimit:4;stroke-dasharray:none;stroke-opacity:1;paint-order:normal"
       d="M 155.6885,171.97813 H 64.492921 c 0,0 -25.266305,1.97393 -36.715096,-22.5028 -11.448792,-24.47673 4.737432,-39.08382 14.212293,-43.03166 9.474863,-3.94787 28.819378,-6.31658 38.294241,4.73741 0,0 -6.316576,-18.160122 7.500927,-25.266288 13.817514,-7.106143 32.535874,-6.405776 53.296114,4.737435 21.88096,11.744773 43.06738,26.801143 44.81397,53.006703 1.77765,26.67196 -36.43339,28.66511 -30.20687,28.3192"
       id="path1398"
       inkscape:connector-curvature="0"
       sodipodi:nodetypes="ccscccssc" />
  </g>
</svg>
