<?xml version="1.0" encoding="UTF-8" standalone="no"?>
<!-- Created with Inkscape (http://www.inkscape.org/) -->

<svg
   xmlns:dc="http://purl.org/dc/elements/1.1/"
   xmlns:cc="http://creativecommons.org/ns#"
   xmlns:rdf="http://www.w3.org/1999/02/22-rdf-syntax-ns#"
   xmlns:svg="http://www.w3.org/2000/svg"
   xmlns="http://www.w3.org/2000/svg"
   xmlns:sodipodi="http://sodipodi.sourceforge.net/DTD/sodipodi-0.dtd"
   xmlns:inkscape="http://www.inkscape.org/namespaces/inkscape"
   width="194.4062mm"
   height="224.48094mm"
   viewBox="0 0 194.40621 224.48094"
   version="1.1"
   id="svg9766"
   inkscape:version="0.92.4 (5da689c313, 2019-01-14)"
   sodipodi:docname="Feuer.svg">
  <defs
     id="defs9760" />
  <sodipodi:namedview
     id="base"
     pagecolor="#ffffff"
     bordercolor="#666666"
     borderopacity="1.0"
     inkscape:pageopacity="0.0"
     inkscape:pageshadow="2"
     inkscape:zoom="0.7"
     inkscape:cx="21.67007"
     inkscape:cy="466.77378"
     inkscape:document-units="mm"
     inkscape:current-layer="layer6"
     showgrid="false"
     inkscape:window-width="1920"
     inkscape:window-height="1017"
     inkscape:window-x="-8"
     inkscape:window-y="-8"
     inkscape:window-maximized="1"
     showguides="true"
     inkscape:guide-bbox="true">
    <inkscape:grid
       type="xygrid"
       id="grid9806" />
  </sodipodi:namedview>
  <metadata
     id="metadata9763">
    <rdf:RDF>
      <cc:Work
         rdf:about="">
        <dc:format>image/svg+xml</dc:format>
        <dc:type
           rdf:resource="http://purl.org/dc/dcmitype/StillImage" />
        <dc:title />
      </cc:Work>
    </rdf:RDF>
  </metadata>
  <g
     inkscape:label="Hexagon"
     inkscape:groupmode="layer"
     id="layer1"
     style="display:none"
     transform="translate(-8.5372571,-14.625031)">
    <path
       sodipodi:type="star"
       style="fill:#999999;stroke-width:0.26458332"
       id="path9802"
       sodipodi:sides="6"
       sodipodi:cx="105.74036"
       sodipodi:cy="126.8655"
       sodipodi:r1="112.24047"
       sodipodi:r2="97.203102"
       sodipodi:arg1="0.52359878"
       sodipodi:arg2="1.0471976"
       inkscape:flatsided="true"
       inkscape:rounded="0"
       inkscape:randomized="0"
       d="m 202.94346,182.98574 -97.2031,56.12023 -97.2031029,-56.12023 5e-7,-112.240474 97.2031024,-56.120235 97.2031,56.120235 z"
       inkscape:transform-center-y="-1.0845752e-06" />
  </g>
  <g
     inkscape:groupmode="layer"
     id="layer6"
     inkscape:label="Feuer 3"
     style="display:inline">
    <path
       style="fill:#ff5555;fill-opacity:1;stroke:#ff5555;stroke-width:10;stroke-linecap:round;stroke-linejoin:miter;stroke-miterlimit:4;stroke-dasharray:none;stroke-dashoffset:0;stroke-opacity:1;paint-order:normal"
       inkscape:transform-center-y="-1.2090588e-06"
       d="M 154.33605,179.47719 C 119.9918,215.92967 72.284903,212.92214 44.605874,182.501 25.766302,157.54332 44.495912,137.61462 39.314209,107.23459 c 28.770036,20.41885 44.256115,58.10403 44.605121,24.77547 0.227573,-21.73229 5.406548,-53.504477 27.26889,-73.180996 -1.66828,25.512813 -3.09114,71.387866 31.05259,35.554338 -11.64557,47.697648 40.31005,47.689178 12.09524,85.093788 z"
       id="path920"
       inkscape:connector-curvature="0"
       sodipodi:nodetypes="cccsccc" />
    <path
       style="fill:#ff6b3f;fill-opacity:1;stroke:#ff6b3f;stroke-width:7.56833029;stroke-linecap:round;stroke-linejoin:miter;stroke-miterlimit:4;stroke-dasharray:none;stroke-dashoffset:0;stroke-opacity:1;paint-order:normal"
       d="m 140.98955,183.39373 c -25.99285,27.58844 -62.099008,25.31224 -83.04741,2.28852 -14.25841,-18.8888 -0.08322,-33.97151 -4.004907,-56.96412 13.764297,16.88399 40.360044,47.97997 33.758629,18.7509 -3.62367,-16.04451 2.947592,-42.49641 13.772438,-57.674313 -1.26261,19.308943 4.52608,56.317223 30.36717,29.197223 -8.81374,36.09915 30.50798,36.09274 9.15408,64.40179 z"
       id="path920-4"
       inkscape:connector-curvature="0"
       sodipodi:nodetypes="cccsccc" />
    <path
       style="fill:#ff953f;fill-opacity:1;stroke:#ff953f;stroke-width:5.41298628;stroke-linecap:round;stroke-linejoin:miter;stroke-miterlimit:4;stroke-dasharray:none;stroke-dashoffset:0;stroke-opacity:1;paint-order:normal"
       d="m 129.4955,188.67671 c -18.59048,19.73168 -44.414161,18.1037 -59.396781,1.63679 -10.197834,-13.50956 -0.05952,-24.29695 -2.864371,-40.74162 9.844437,12.07569 28.866125,34.31602 24.144692,13.41093 -2.591705,-11.47528 2.108161,-30.39408 9.85026,-41.24955 -0.90304,13.81005 3.23712,40.27894 21.71906,20.8823 -6.30372,25.81867 21.81978,25.81408 6.54714,46.06115 z"
       id="path920-4-3"
       inkscape:connector-curvature="0"
       sodipodi:nodetypes="cccsccc" />
  </g>
</svg>
