<?xml version="1.0" encoding="UTF-8" standalone="no"?>
<!-- Created with Inkscape (http://www.inkscape.org/) -->

<svg
   xmlns:dc="http://purl.org/dc/elements/1.1/"
   xmlns:cc="http://creativecommons.org/ns#"
   xmlns:rdf="http://www.w3.org/1999/02/22-rdf-syntax-ns#"
   xmlns:svg="http://www.w3.org/2000/svg"
   xmlns="http://www.w3.org/2000/svg"
   xmlns:sodipodi="http://sodipodi.sourceforge.net/DTD/sodipodi-0.dtd"
   xmlns:inkscape="http://www.inkscape.org/namespaces/inkscape"
   width="194.4062mm"
   height="224.48094mm"
   viewBox="0 0 194.40621 224.48094"
   version="1.1"
   id="svg9766"
   inkscape:version="0.92.4 (5da689c313, 2019-01-14)"
   sodipodi:docname="Laubbaum2_2.svg">
  <defs
     id="defs9760" />
  <sodipodi:namedview
     id="base"
     pagecolor="#ffffff"
     bordercolor="#666666"
     borderopacity="1.0"
     inkscape:pageopacity="0.0"
     inkscape:pageshadow="2"
     inkscape:zoom="0.7"
     inkscape:cx="38.599597"
     inkscape:cy="353.23287"
     inkscape:document-units="mm"
     inkscape:current-layer="layer4"
     showgrid="false"
     inkscape:window-width="1920"
     inkscape:window-height="1017"
     inkscape:window-x="-8"
     inkscape:window-y="-8"
     inkscape:window-maximized="1"
     showguides="true"
     inkscape:guide-bbox="true"
     inkscape:snap-bbox="true"
     inkscape:snap-bbox-midpoints="true"
     inkscape:snap-object-midpoints="true">
    <inkscape:grid
       type="xygrid"
       id="grid9806" />
  </sodipodi:namedview>
  <metadata
     id="metadata9763">
    <rdf:RDF>
      <cc:Work
         rdf:about="">
        <dc:format>image/svg+xml</dc:format>
        <dc:type
           rdf:resource="http://purl.org/dc/dcmitype/StillImage" />
        <dc:title />
      </cc:Work>
    </rdf:RDF>
  </metadata>
  <g
     inkscape:groupmode="layer"
     id="layer3"
     inkscape:label="Stamm"
     style="display:inline">
    <rect
       style="display:inline;fill:#73510c;stroke-width:0.09041436"
       id="rect9808"
       width="10.205357"
       height="65.389877"
       x="91.98703"
       y="155.91612" />
  </g>
  <g
     inkscape:groupmode="layer"
     id="layer4"
     inkscape:label="Krone 1"
     style="display:inline">
    <path
       style="fill:#e19b44;stroke:#ffb97c;stroke-width:9.04861641;stroke-linecap:butt;stroke-linejoin:miter;stroke-miterlimit:4;stroke-dasharray:none;stroke-opacity:1;paint-order:normal"
       d="M 92.018385,170.43964 C 78.758094,169.26574 71.510842,167.78365 62.389237,164.38032 49.597985,159.60781 33.487721,148.92774 25.686836,140.049 17.505513,130.73724 14.189588,122.24667 14.100397,110.38141 c -0.03845,-5.11744 0.01379,-5.62061 0.82723,-7.96602 4.830755,-13.928531 19.227901,-27.624639 34.211341,-32.545499 9.941283,-3.264913 19.398327,-2.417092 28.950549,2.595412 0.857031,0.449722 1.64877,0.727471 1.759424,0.617225 0.110661,-0.110247 0.688637,-1.393229 1.284394,-2.851068 4.39405,-10.752341 13.476812,-20.269589 23.000645,-24.100902 5.70882,-2.296585 11.31893,-3.24265 17.7789,-2.998155 4.41918,0.167254 7.11209,0.620751 11.44364,1.927163 15.72867,4.743828 31.02008,15.181451 39.27755,26.810108 3.56963,5.026973 5.86031,10.49505 7.11206,16.977201 0.98661,5.109207 1.15406,17.465855 0.30368,22.412665 -2.32333,13.51571 -7.65964,25.06919 -16.08319,34.82134 -8.67635,10.04476 -18.81094,15.97027 -34.41475,20.12162 -12.32126,3.27801 -28.16443,5.06656 -37.533485,4.23714 z"
       id="path856"
       inkscape:connector-curvature="0" />
  </g>
</svg>
