<?xml version="1.0" encoding="UTF-8" standalone="no"?>
<!-- Created with Inkscape (http://www.inkscape.org/) -->

<svg
   xmlns:osb="http://www.openswatchbook.org/uri/2009/osb"
   xmlns:dc="http://purl.org/dc/elements/1.1/"
   xmlns:cc="http://creativecommons.org/ns#"
   xmlns:rdf="http://www.w3.org/1999/02/22-rdf-syntax-ns#"
   xmlns:svg="http://www.w3.org/2000/svg"
   xmlns="http://www.w3.org/2000/svg"
   xmlns:sodipodi="http://sodipodi.sourceforge.net/DTD/sodipodi-0.dtd"
   xmlns:inkscape="http://www.inkscape.org/namespaces/inkscape"
   width="210mm"
   height="297mm"
   viewBox="0 0 210 297"
   version="1.1"
   id="svg4757"
   inkscape:version="0.92.4 (5da689c313, 2019-01-14)"
   sodipodi:docname="Gras2_1.svg">
  <defs
     id="defs4751">
    <linearGradient
       id="linearGradient3174"
       osb:paint="solid">
      <stop
         style="stop-color:#8ca78c;stop-opacity:1;"
         offset="0"
         id="stop3172" />
    </linearGradient>
    <linearGradient
       id="linearGradient1708"
       osb:paint="solid">
      <stop
         style="stop-color:#8ca78c;stop-opacity:1;"
         offset="0"
         id="stop1706" />
    </linearGradient>
  </defs>
  <sodipodi:namedview
     id="base"
     pagecolor="#ffffff"
     bordercolor="#666666"
     borderopacity="1.0"
     inkscape:pageopacity="0.0"
     inkscape:pageshadow="2"
     inkscape:zoom="0.7"
     inkscape:cx="-93.614673"
     inkscape:cy="584.17023"
     inkscape:document-units="mm"
     inkscape:current-layer="layer2"
     showgrid="false"
     inkscape:window-width="1920"
     inkscape:window-height="1017"
     inkscape:window-x="-8"
     inkscape:window-y="-8"
     inkscape:window-maximized="1" />
  <metadata
     id="metadata4754">
    <rdf:RDF>
      <cc:Work
         rdf:about="">
        <dc:format>image/svg+xml</dc:format>
        <dc:type
           rdf:resource="http://purl.org/dc/dcmitype/StillImage" />
        <dc:title />
      </cc:Work>
    </rdf:RDF>
  </metadata>
  <g
     inkscape:label="Hexagon"
     inkscape:groupmode="layer"
     id="layer1"
     style="display:none"
     sodipodi:insensitive="true">
    <path
       sodipodi:type="star"
       style="fill:#f2f2f2;fill-opacity:1;stroke-width:0.26458332"
       id="path4765"
       sodipodi:sides="6"
       sodipodi:cx="71.626488"
       sodipodi:cy="56.229164"
       sodipodi:r1="54.44038"
       sodipodi:r2="47.146755"
       sodipodi:arg1="1.5916266"
       sodipodi:arg2="2.1152254"
       inkscape:flatsided="true"
       inkscape:rounded="0"
       inkscape:randomized="0"
       d="M 70.492562,110.65773 23.923001,82.46144 25.056927,28.032871 72.760414,1.8005944 119.32997,29.996888 l -1.13392,54.42857 z"
       transform="matrix(2.2242324,-0.04241716,0.04241716,2.2242324,-56.556901,-0.83137905)" />
  </g>
  <g
     inkscape:groupmode="layer"
     id="layer2"
     inkscape:label="Gras"
     style="display:inline">
    <path
       style="fill:#537052;fill-opacity:1;stroke:#769a75;stroke-width:8.27928352;stroke-linecap:butt;stroke-linejoin:round;stroke-miterlimit:4;stroke-dasharray:none;stroke-opacity:1"
       d="m 77.883725,215.63231 c 0.329458,-4.31255 0.29533,-14.87933 -0.06301,-19.49602 -0.458217,-5.90394 -1.676017,-13.47796 -2.938939,-18.27857 -2.664041,-10.12649 -6.396135,-17.45145 -11.800512,-23.16081 -4.187173,-4.42346 -8.08597,-7.00252 -13.289698,-8.79116 l -2.881017,-0.99027 2.009738,-0.18768 c 4.764098,-0.44488 13.447858,0.71128 18.86462,2.51166 17.876272,5.94153 29.270677,23.39097 32.757053,50.16426 0.30121,2.31315 0.57789,7.39658 0.67705,12.43925 l 0.16766,8.52754 H 89.53059 77.674508 Z"
       id="path1704"
       inkscape:connector-curvature="0" />
    <path
       style="fill:#537052;fill-opacity:1;stroke:#769a75;stroke-width:8.27928352;stroke-linecap:butt;stroke-linejoin:round;stroke-miterlimit:4;stroke-dasharray:none;stroke-opacity:1"
       d="m 137.70928,212.55071 c -0.42393,-4.42074 -0.3046,-15.41651 0.2202,-20.28753 0.67109,-6.22917 2.39908,-14.34314 4.17022,-19.58163 3.73604,-11.05019 8.92297,-19.39493 16.40047,-26.38524 5.79342,-5.41591 11.17727,-8.85754 18.3518,-11.73135 v 0 0 c -6.55414,0.46538 -17.30687,1.96459 -24.77469,4.89209 -24.6451,9.66127 -40.44754,30.02776 -45.4294,58.55028 -0.43042,2.46427 -0.84604,7.80478 -1.01702,13.06831 l 0.36916,2.9755 14.96261,0.61534 17.01586,0.69111 z"
       id="path1704-4"
       inkscape:connector-curvature="0"
       sodipodi:nodetypes="cccccccccccccc" />
    <path
       style="fill:#537052;fill-opacity:1;stroke:#769a75;stroke-width:8.27928352;stroke-linecap:butt;stroke-linejoin:round;stroke-miterlimit:4;stroke-dasharray:none;stroke-opacity:1;paint-order:markers fill stroke"
       d="m 92.481484,226.79305 c 0,0 25.423386,-110.60369 -14.124076,-131.983269 67.513132,2.280487 39.547462,132.268329 39.547462,132.268329 z"
       id="path1670"
       inkscape:connector-curvature="0" />
  </g>
</svg>
