<?xml version="1.0" encoding="UTF-8" standalone="no"?>
<!-- Created with Inkscape (http://www.inkscape.org/) -->

<svg
   xmlns:osb="http://www.openswatchbook.org/uri/2009/osb"
   xmlns:dc="http://purl.org/dc/elements/1.1/"
   xmlns:cc="http://creativecommons.org/ns#"
   xmlns:rdf="http://www.w3.org/1999/02/22-rdf-syntax-ns#"
   xmlns:svg="http://www.w3.org/2000/svg"
   xmlns="http://www.w3.org/2000/svg"
   xmlns:sodipodi="http://sodipodi.sourceforge.net/DTD/sodipodi-0.dtd"
   xmlns:inkscape="http://www.inkscape.org/namespaces/inkscape"
   width="210mm"
   height="297mm"
   viewBox="0 0 210 297"
   version="1.1"
   id="svg4757"
   inkscape:version="0.92.4 (5da689c313, 2019-01-14)"
   sodipodi:docname="Gras2_2.svg">
  <defs
     id="defs4751">
    <linearGradient
       id="linearGradient3174"
       osb:paint="solid">
      <stop
         style="stop-color:#8ca78c;stop-opacity:1;"
         offset="0"
         id="stop3172" />
    </linearGradient>
    <linearGradient
       id="linearGradient1708"
       osb:paint="solid">
      <stop
         style="stop-color:#8ca78c;stop-opacity:1;"
         offset="0"
         id="stop1706" />
    </linearGradient>
  </defs>
  <sodipodi:namedview
     id="base"
     pagecolor="#ffffff"
     bordercolor="#666666"
     borderopacity="1.0"
     inkscape:pageopacity="0.0"
     inkscape:pageshadow="2"
     inkscape:zoom="0.7"
     inkscape:cx="-87.919703"
     inkscape:cy="644.73431"
     inkscape:document-units="mm"
     inkscape:current-layer="layer2"
     showgrid="false"
     inkscape:window-width="1920"
     inkscape:window-height="1017"
     inkscape:window-x="-8"
     inkscape:window-y="-8"
     inkscape:window-maximized="1" />
  <metadata
     id="metadata4754">
    <rdf:RDF>
      <cc:Work
         rdf:about="">
        <dc:format>image/svg+xml</dc:format>
        <dc:type
           rdf:resource="http://purl.org/dc/dcmitype/StillImage" />
        <dc:title />
      </cc:Work>
    </rdf:RDF>
  </metadata>
  <g
     inkscape:label="Hexagon"
     inkscape:groupmode="layer"
     id="layer1"
     style="display:none"
     sodipodi:insensitive="true">
    <path
       sodipodi:type="star"
       style="fill:#f2f2f2;fill-opacity:1;stroke-width:0.26458332"
       id="path4765"
       sodipodi:sides="6"
       sodipodi:cx="71.626488"
       sodipodi:cy="56.229164"
       sodipodi:r1="54.44038"
       sodipodi:r2="47.146755"
       sodipodi:arg1="1.5916266"
       sodipodi:arg2="2.1152254"
       inkscape:flatsided="true"
       inkscape:rounded="0"
       inkscape:randomized="0"
       d="M 70.492562,110.65773 23.923001,82.46144 25.056927,28.032871 72.760414,1.8005944 119.32997,29.996888 l -1.13392,54.42857 z"
       transform="matrix(2.2242324,-0.04241716,0.04241716,2.2242324,-56.556901,-0.83137905)" />
  </g>
  <g
     inkscape:groupmode="layer"
     id="layer2"
     inkscape:label="Gras"
     style="display:inline">
    <path
       style="fill:#537052;fill-opacity:1;stroke:#769a75;stroke-width:9.45467186;stroke-linecap:butt;stroke-linejoin:round;stroke-miterlimit:4;stroke-dasharray:none;stroke-opacity:1"
       d="m 125.08775,206.19197 c 0.87743,-18.33836 3.8513,-33.24368 9.23302,-46.27666 7.5661,-18.32292 19.7367,-29.95513 35.10167,-33.54892 4.59437,-1.07459 11.38585,-1.64535 15.36248,-1.29107 l 1.82572,0.16266 -2.55769,0.88197 c -3.8129,1.3148 -6.19257,2.55026 -9.56357,4.96517 -6.17644,4.42465 -11.43312,11.16701 -15.53541,19.92618 -6.33594,13.52838 -9.97182,31.31712 -10.72247,52.46026 l -0.2153,6.06425 h -11.54422 -11.54422 z"
       id="path1702"
       inkscape:connector-curvature="0" />
    <path
       style="fill:#537052;fill-opacity:1;stroke:#769a75;stroke-width:9.45467186;stroke-linecap:butt;stroke-linejoin:round;stroke-miterlimit:4;stroke-dasharray:none;stroke-opacity:1"
       d="m 66.635454,208.913 c -0.221555,-4.04757 -1.546247,-13.86213 -2.444103,-18.10815 -1.148203,-5.42992 -3.206562,-12.31874 -4.967498,-16.62497 -3.714549,-9.08363 -8.078741,-15.43338 -13.799137,-20.07726 -4.432023,-3.59796 -8.370397,-5.51737 -13.424605,-6.54265 l -2.79823,-0.56763 1.844502,-0.42031 c 4.3724,-0.99633 12.582881,-0.98458 17.836476,0.0255 17.337786,3.33354 30.060707,18.15343 36.576325,42.60477 0.562936,2.11255 1.442051,6.80224 2.151212,11.47581 l 1.199248,7.90333 -11.016758,1.45074 -11.016757,1.45075 z"
       id="path1704"
       inkscape:connector-curvature="0" />
    <path
       style="fill:#537052;fill-opacity:1;stroke:#769a75;stroke-width:9.45467186;stroke-linecap:butt;stroke-linejoin:round;stroke-miterlimit:4;stroke-dasharray:none;stroke-opacity:1;paint-order:markers fill stroke"
       d="m 79.540956,218.80512 c 0,0 -3.774342,-121.730767 -48.245655,-134.359182 C 98.308649,70.273111 107.84312,218.94419 107.84312,218.94419 Z"
       id="path1670"
       inkscape:connector-curvature="0"
       sodipodi:nodetypes="cccc" />
    <path
       style="fill:#537052;fill-opacity:1;stroke:#769a75;stroke-width:9.45467186;stroke-linecap:butt;stroke-linejoin:round;stroke-miterlimit:4;stroke-dasharray:none;stroke-opacity:1;paint-order:markers fill stroke"
       d="m 137.36592,215.26192 c 0,0 -19.78278,-130.751046 12.606,-155.547662 C 94.965377,61.679592 116.65698,215.3252 116.65698,215.3252 Z"
       id="path1670-4"
       inkscape:connector-curvature="0" />
    <path
       style="fill:#537052;fill-opacity:1;stroke:#769a75;stroke-width:9.45467186;stroke-linecap:butt;stroke-linejoin:round;stroke-miterlimit:4;stroke-dasharray:none;stroke-opacity:1"
       d="m 91.919702,219.9363 c -7.31039,-36.91911 -10.767163,-67.86728 -10.732261,-96.08507 0.04908,-39.671117 8.17869,-67.921253 23.446959,-81.477324 4.56548,-4.05348 11.77343,-8.016748 16.30459,-8.965025 l 2.08031,-0.435351 -2.41356,2.822155 c -3.59803,4.207167 -5.65638,7.659882 -8.27224,13.876009 -4.7929,11.389404 -7.52891,27.016016 -8.08591,46.182504 -0.86028,29.602302 4.74526,66.881792 11.17056,109.745322 l 3.09711,20.66102 -12.57262,-0.10695 -12.689948,0.51458 z"
       id="path1702-8"
       inkscape:connector-curvature="0"
       sodipodi:nodetypes="sssccccsscccs" />
  </g>
</svg>
