<?xml version="1.0" encoding="UTF-8" standalone="no"?>
<!-- Created with Inkscape (http://www.inkscape.org/) -->

<svg
   xmlns:dc="http://purl.org/dc/elements/1.1/"
   xmlns:cc="http://creativecommons.org/ns#"
   xmlns:rdf="http://www.w3.org/1999/02/22-rdf-syntax-ns#"
   xmlns:svg="http://www.w3.org/2000/svg"
   xmlns="http://www.w3.org/2000/svg"
   xmlns:sodipodi="http://sodipodi.sourceforge.net/DTD/sodipodi-0.dtd"
   xmlns:inkscape="http://www.inkscape.org/namespaces/inkscape"
   width="194.4062mm"
   height="224.48094mm"
   viewBox="0 0 194.40622 224.48093"
   version="1.1"
   id="svg9766"
   inkscape:version="0.92.4 (5da689c313, 2019-01-14)"
   sodipodi:docname="Kaktus1_3.svg">
  <defs
     id="defs9760" />
  <sodipodi:namedview
     id="base"
     pagecolor="#ffffff"
     bordercolor="#666666"
     borderopacity="1.0"
     inkscape:pageopacity="0.0"
     inkscape:pageshadow="2"
     inkscape:zoom="0.98994949"
     inkscape:cx="292.08792"
     inkscape:cy="417.82303"
     inkscape:document-units="mm"
     inkscape:current-layer="layer2"
     showgrid="false"
     inkscape:window-width="1920"
     inkscape:window-height="1017"
     inkscape:window-x="-8"
     inkscape:window-y="-8"
     inkscape:window-maximized="1"
     showguides="true"
     inkscape:guide-bbox="true" />
  <metadata
     id="metadata9763">
    <rdf:RDF>
      <cc:Work
         rdf:about="">
        <dc:format>image/svg+xml</dc:format>
        <dc:type
           rdf:resource="http://purl.org/dc/dcmitype/StillImage" />
        <dc:title />
      </cc:Work>
    </rdf:RDF>
  </metadata>
  <g
     inkscape:label="Ebene 1"
     inkscape:groupmode="layer"
     id="layer1"
     style="display:none"
     transform="translate(-9.3390683,-22.108574)">
    <path
       sodipodi:type="star"
       style="fill:#999999;stroke-width:0.26458332"
       id="path9802"
       sodipodi:sides="6"
       sodipodi:cx="106.54217"
       sodipodi:cy="134.34904"
       sodipodi:r1="112.24047"
       sodipodi:r2="97.203102"
       sodipodi:arg1="0.52359878"
       sodipodi:arg2="1.0471976"
       inkscape:flatsided="true"
       inkscape:rounded="0"
       inkscape:randomized="0"
       d="m 203.74527,190.46928 -97.2031,56.12024 -97.2031017,-56.12024 5e-7,-112.240471 97.2031012,-56.120235 97.2031,56.120236 z"
       inkscape:transform-center-y="-1.0845752e-06" />
  </g>
  <g
     inkscape:groupmode="layer"
     id="layer2"
     inkscape:label="Ebene 2"
     transform="translate(-9.3390683,-22.108574)"
     style="display:inline">
    <path
       style="fill:#769a75;fill-opacity:1;stroke:#adc2ac;stroke-width:10;stroke-linecap:round;stroke-linejoin:miter;stroke-miterlimit:4;stroke-dasharray:none;stroke-opacity:1;paint-order:normal"
       d="m 105.05483,37.99326 c -27.853606,-0.04489 -15.630647,59.479566 -15.487939,75.53297 0,0 -11.958464,1.73895 -12.77785,-9.27299 -2.095384,-19.992218 -0.0015,-39.880411 -15.047562,-40.54113 -19.297055,-2.104578 -16.160984,55.95105 -3.816183,67.9875 9.73273,9.48961 22.418515,7.20764 34.094408,6.62251 l 0.314325,89.78943 26.510771,-0.0283 v -89.83258 c 6.4303,-0.16306 35.93805,-1.31734 39.2462,-21.73703 0,0 7.43402,-53.646978 -12.72375,-54.373339 -14.66992,0.294246 -13.63379,11.778532 -12.19367,36.888707 0,0 1.05422,12.868812 -14.67733,12.326092 -4.9e-4,-33.064697 3.78041,-73.436611 -13.44142,-73.36181 z"
       id="path6374"
       inkscape:connector-curvature="0"
       sodipodi:nodetypes="ccccscccccccccc" />
  </g>
</svg>
