<?xml version="1.0" encoding="UTF-8" standalone="no"?>
<!-- Created with Inkscape (http://www.inkscape.org/) -->

<svg
   xmlns:dc="http://purl.org/dc/elements/1.1/"
   xmlns:cc="http://creativecommons.org/ns#"
   xmlns:rdf="http://www.w3.org/1999/02/22-rdf-syntax-ns#"
   xmlns:svg="http://www.w3.org/2000/svg"
   xmlns="http://www.w3.org/2000/svg"
   xmlns:sodipodi="http://sodipodi.sourceforge.net/DTD/sodipodi-0.dtd"
   xmlns:inkscape="http://www.inkscape.org/namespaces/inkscape"
   width="210mm"
   height="297mm"
   viewBox="0 0 210 297"
   version="1.1"
   id="svg842"
   inkscape:version="0.92.4 (5da689c313, 2019-01-14)"
   sodipodi:docname="Fels_3.svg">
  <defs
     id="defs836" />
  <sodipodi:namedview
     id="base"
     pagecolor="#ffffff"
     bordercolor="#666666"
     borderopacity="1.0"
     inkscape:pageopacity="0.0"
     inkscape:pageshadow="2"
     inkscape:zoom="0.7"
     inkscape:cx="283.13026"
     inkscape:cy="622.47445"
     inkscape:document-units="mm"
     inkscape:current-layer="layer3"
     showgrid="false"
     inkscape:window-width="1368"
     inkscape:window-height="849"
     inkscape:window-x="-8"
     inkscape:window-y="-8"
     inkscape:window-maximized="1" />
  <metadata
     id="metadata839">
    <rdf:RDF>
      <cc:Work
         rdf:about="">
        <dc:format>image/svg+xml</dc:format>
        <dc:type
           rdf:resource="http://purl.org/dc/dcmitype/StillImage" />
        <dc:title></dc:title>
      </cc:Work>
    </rdf:RDF>
  </metadata>
  <g
     inkscape:label="Ebene 1"
     inkscape:groupmode="layer"
     id="layer1"
     sodipodi:insensitive="true"
     style="display:none">
    <path
       sodipodi:type="star"
       style="display:inline;fill:#f2f2f2;fill-opacity:1;stroke-width:0.26458332"
       id="path4765"
       sodipodi:sides="6"
       sodipodi:cx="71.626488"
       sodipodi:cy="56.229164"
       sodipodi:r1="54.44038"
       sodipodi:r2="47.146755"
       sodipodi:arg1="1.5916266"
       sodipodi:arg2="2.1152254"
       inkscape:flatsided="true"
       inkscape:rounded="0"
       inkscape:randomized="0"
       d="M 70.492562,110.65773 23.923001,82.46144 25.056927,28.032871 72.760414,1.8005944 119.32997,29.996888 l -1.13392,54.42857 z"
       transform="matrix(2.2242324,-0.04241716,0.04241716,2.2242324,-56.702596,-0.98897038)" />
  </g>
  <g
     inkscape:groupmode="layer"
     id="layer3"
     inkscape:label="Stein"
     style="display:inline">
    <path
       style="display:inline;fill:#c8beb7;fill-opacity:1;stroke:#e3dedb;stroke-width:10;stroke-miterlimit:4;stroke-dasharray:none;stroke-opacity:1"
       d="M 27.884229,188.25284 C 16.791562,187.28623 9.6308343,182.07742 6.7197037,172.85752 c -1.228633,-3.89124 -1.5269,-6.29398 -1.532531,-12.34563 -0.0055,-5.857 0.263893,-8.63911 1.175584,-12.1428 1.892437,-7.27273 5.8013773,-12.59576 11.2174813,-15.27544 5.030948,-2.48915 17.815918,-4.18789 24.451496,-3.2489 5.145193,0.72811 11.108841,2.63773 17.050693,5.45984 3.264394,1.55043 4.123399,2.1348 5.828564,3.96509 2.620205,2.81247 6.316081,9.73028 6.856372,12.83356 0.452335,2.59804 0.731117,6.90374 0.618118,9.54646 -0.510505,11.93909 -6.118256,19.55558 -17.119344,23.25166 -4.04845,1.36017 -12.213582,2.85044 -18.413618,3.36078 -3.795289,0.31239 -5.29429,0.31084 -8.96829,-0.01 z"
       id="path1428-4"
       inkscape:connector-curvature="0" />
    <path
       style="fill:#c8beb7;fill-opacity:1;stroke:#e3dedb;stroke-width:10;stroke-miterlimit:4;stroke-dasharray:none;stroke-opacity:1"
       d="m 94.561433,210.0051 c -27.532492,-2.52639 -45.305748,-16.14053 -52.531305,-40.2384 -3.049522,-10.17046 -3.789832,-16.45043 -3.803815,-32.2675 -0.01363,-15.30831 0.654998,-22.57982 2.91786,-31.73734 4.697112,-19.008598 14.399279,-32.92126 27.842294,-39.925099 12.48704,-6.505794 44.219923,-10.945758 60.689733,-8.491537 12.7706,1.903009 27.57264,6.894142 42.32059,14.27023 8.10236,4.052338 10.23446,5.579692 14.46676,10.363456 6.50347,7.350884 15.67679,25.43189 17.01783,33.54284 1.12271,6.79043 1.81466,18.04412 1.53419,24.95132 -1.2671,31.20493 -15.18579,51.11201 -42.49099,60.77235 -10.04843,3.55504 -30.31466,7.45014 -45.70342,8.784 -9.42008,0.8165 -13.14067,0.81245 -22.259727,-0.0243 z"
       id="path1428"
       inkscape:connector-curvature="0" />
    <path
       style="display:inline;fill:#c8beb7;fill-opacity:1;stroke:#e3dedb;stroke-width:10;stroke-miterlimit:4;stroke-dasharray:none;stroke-opacity:1"
       d="m 102.42385,223.25187 c -12.007683,-1.01593 -19.759103,-6.49045 -22.910362,-16.18071 -1.329976,-4.08973 -1.652858,-6.61504 -1.658954,-12.97539 -0.0076,-6.15579 0.285652,-9.07983 1.272571,-12.76223 2.048529,-7.64375 6.279932,-13.23833 12.142802,-16.05472 5.44592,-2.61609 19.285513,-4.4015 26.468453,-3.4146 5.56962,0.76522 12.02522,2.77226 18.45719,5.73836 3.53366,1.62953 4.46352,2.24369 6.30934,4.16736 2.83635,2.95593 6.83711,10.22664 7.42196,13.48823 0.48965,2.73057 0.79143,7.25591 0.66913,10.03345 -0.55265,12.54813 -6.62295,20.55315 -18.53152,24.43778 -4.38239,1.42958 -13.22107,2.99586 -19.93255,3.53222 -4.10833,0.32834 -5.731,0.32672 -9.70806,-0.009 z"
       id="path1428-4-7"
       inkscape:connector-curvature="0" />
    <path
       style="display:inline;fill:#c8beb7;fill-opacity:1;stroke:#e3dedb;stroke-width:10;stroke-miterlimit:4;stroke-dasharray:none;stroke-opacity:1"
       d="m 72.046848,215.33445 c -6.406409,-0.53348 -10.542003,-3.40828 -12.223286,-8.4969 -0.709573,-2.14764 -0.881833,-3.47374 -0.885083,-6.81373 -0.0037,-3.23256 0.1524,-4.76806 0.678943,-6.70179 1.092953,-4.01392 3.350508,-6.95179 6.4785,-8.43075 2.905561,-1.37378 10.289335,-2.31134 14.121638,-1.7931 2.971531,0.40184 6.415768,1.45579 9.847394,3.01336 1.885301,0.85572 2.381406,1.17823 3.366204,2.18839 1.513268,1.55225 3.647777,5.37029 3.959814,7.08305 0.261242,1.43388 0.422241,3.81025 0.356995,5.26882 -0.294865,6.58936 -3.533526,10.79301 -9.887061,12.83293 -2.338121,0.7507 -7.05379,1.57321 -10.634541,1.85486 -2.191917,0.17243 -3.057643,0.17157 -5.179517,-0.005 z"
       id="path1428-4-7-5"
       inkscape:connector-curvature="0" />
    <path
       style="display:inline;fill:#c8beb7;fill-opacity:1;stroke:#e3dedb;stroke-width:10;stroke-miterlimit:4;stroke-dasharray:none;stroke-opacity:1"
       d="m 88.868181,59.214694 c -5.176351,-0.429773 -8.517889,-2.745722 -9.876356,-6.845132 -0.573337,-1.730147 -0.712523,-2.798457 -0.715149,-5.489165 -0.0032,-2.604162 0.123139,-3.841166 0.548589,-5.398986 0.883099,-3.233628 2.707197,-5.600386 5.234599,-6.791841 2.34768,-1.106722 8.313733,-1.862024 11.410223,-1.444528 2.400983,0.323724 5.183913,1.17279 7.956663,2.427573 1.52331,0.689371 1.92417,0.949187 2.71987,1.762975 1.22271,1.250498 2.94739,4.326324 3.19951,5.70613 0.21109,1.155139 0.34117,3.069551 0.28845,4.24458 -0.23824,5.308411 -2.85507,8.694886 -7.9887,10.338253 -1.889199,0.604767 -5.69944,1.267384 -8.59267,1.494282 -1.771061,0.13891 -2.470559,0.138217 -4.185029,-0.004 z"
       id="path1428-4-7-5-3"
       inkscape:connector-curvature="0" />
    <path
       style="display:inline;fill:#c8beb7;fill-opacity:1;stroke:#e3dedb;stroke-width:10;stroke-miterlimit:4;stroke-dasharray:none;stroke-opacity:1"
       d="m 185.3421,184.45889 c -4.81607,-0.41707 -7.92503,-2.66449 -9.18894,-6.64263 -0.53343,-1.67895 -0.66293,-2.71566 -0.66537,-5.32676 -0.003,-2.52712 0.11456,-3.72753 0.5104,-5.23926 0.82164,-3.13797 2.51877,-5.43471 4.87026,-6.59091 2.18428,-1.07398 7.73508,-1.80694 10.61605,-1.40179 2.23387,0.31414 4.82309,1.13809 7.40284,2.35575 1.41729,0.66898 1.79025,0.92111 2.53057,1.71082 1.13761,1.2135 2.74225,4.19833 2.97682,5.53732 0.19639,1.12096 0.31743,2.97873 0.26837,4.119 -0.22166,5.15136 -2.65635,8.43765 -7.43267,10.0324 -1.75769,0.58688 -5.30273,1.22989 -7.99459,1.45008 -1.64779,0.13479 -2.2986,0.13412 -3.89374,-0.004 z"
       id="path1428-4-7-5-3-8"
       inkscape:connector-curvature="0" />
  </g>
</svg>
